0
SECTION
2
HEADER
9
$INSUNITS
70
4
0
ENDSEC
0
SECTION
2
TABLES
0
TABLE
2
LTYPE
0
LTYPE
72
65
70
0
2
CONTINUOUS
3
______
73
0
40
0
0
LTYPE
72
65
70
0
2
DASHED
3
_ _ _ 
73
2
40
7.5
49
5
49
-2.5
0
LTYPE
72
65
70
0
2
DOTTED
3
. . . 
73
2
40
1.5
49
0.5
49
-1
0
ENDTAB
0
TABLE
2
LAYER
0
ENDTAB
0
ENDSEC
0
SECTION
2
ENTITIES
0
POLYLINE
8
0
6
CONTINUOUS
66
1
70
1
0
VERTEX
8
0
10
21.575
20
-44.1
42
0.4142136
0
VERTEX
8
0
10
22.575
20
-45.1
0
VERTEX
8
0
10
34.575
20
-45.1
42
0.4142136
0
VERTEX
8
0
10
35.575
20
-44.1
0
VERTEX
8
0
10
35.575
20
-32.1
42
0.4142136
0
VERTEX
8
0
10
34.575
20
-31.1
0
VERTEX
8
0
10
22.575
20
-31.1
42
0.4142136
0
VERTEX
8
0
10
21.575
20
-32.1
0
SEQEND
0
POLYLINE
8
0
6
CONTINUOUS
66
1
70
1
0
VERTEX
8
0
10
-7
20
-6
42
0.4142136
0
VERTEX
8
0
10
-6
20
-7
0
VERTEX
8
0
10
6
20
-7
42
0.4142136
0
VERTEX
8
0
10
7
20
-6
0
VERTEX
8
0
10
7
20
6
42
0.4142136
0
VERTEX
8
0
10
6
20
7
0
VERTEX
8
0
10
-6
20
7
42
0.4142136
0
VERTEX
8
0
10
-7
20
6
0
SEQEND
0
POLYLINE
8
0
6
CONTINUOUS
66
1
70
1
0
VERTEX
8
0
10
16.8125
20
-6
42
0.4142136
0
VERTEX
8
0
10
17.8125
20
-7
0
VERTEX
8
0
10
29.8125
20
-7
42
0.4142136
0
VERTEX
8
0
10
30.8125
20
-6
0
VERTEX
8
0
10
30.8125
20
6
42
0.4142136
0
VERTEX
8
0
10
29.8125
20
7
0
VERTEX
8
0
10
17.8125
20
7
42
0.4142136
0
VERTEX
8
0
10
16.8125
20
6
0
SEQEND
0
POLYLINE
8
0
6
CONTINUOUS
66
1
70
1
0
VERTEX
8
0
10
35.8625
20
-6
42
0.4142136
0
VERTEX
8
0
10
36.8625
20
-7
0
VERTEX
8
0
10
48.8625
20
-7
42
0.4142136
0
VERTEX
8
0
10
49.8625
20
-6
0
VERTEX
8
0
10
49.8625
20
6
42
0.4142136
0
VERTEX
8
0
10
48.8625
20
7
0
VERTEX
8
0
10
36.8625
20
7
42
0.4142136
0
VERTEX
8
0
10
35.8625
20
6
0
SEQEND
0
POLYLINE
8
0
6
CONTINUOUS
66
1
70
1
0
VERTEX
8
0
10
73.9625
20
-6
42
0.4142136
0
VERTEX
8
0
10
74.9625
20
-7
0
VERTEX
8
0
10
86.9625
20
-7
42
0.4142136
0
VERTEX
8
0
10
87.9625
20
-6
0
VERTEX
8
0
10
87.9625
20
6
42
0.4142136
0
VERTEX
8
0
10
86.9625
20
7
0
VERTEX
8
0
10
74.9625
20
7
42
0.4142136
0
VERTEX
8
0
10
73.9625
20
6
0
SEQEND
0
POLYLINE
8
0
6
CONTINUOUS
66
1
70
1
0
VERTEX
8
0
10
97.775
20
-6
42
0.4142136
0
VERTEX
8
0
10
98.775
20
-7
0
VERTEX
8
0
10
110.775
20
-7
42
0.4142136
0
VERTEX
8
0
10
111.775
20
-6
0
VERTEX
8
0
10
111.775
20
6
42
0.4142136
0
VERTEX
8
0
10
110.775
20
7
0
VERTEX
8
0
10
98.775
20
7
42
0.4142136
0
VERTEX
8
0
10
97.775
20
6
0
SEQEND
0
POLYLINE
8
0
6
CONTINUOUS
66
1
70
1
0
VERTEX
8
0
10
135.875
20
-6
42
0.4142136
0
VERTEX
8
0
10
136.875
20
-7
0
VERTEX
8
0
10
148.875
20
-7
42
0.4142136
0
VERTEX
8
0
10
149.875
20
-6
0
VERTEX
8
0
10
149.875
20
6
42
0.4142136
0
VERTEX
8
0
10
148.875
20
7
0
VERTEX
8
0
10
136.875
20
7
42
0.4142136
0
VERTEX
8
0
10
135.875
20
6
0
SEQEND
0
POLYLINE
8
0
6
CONTINUOUS
66
1
70
1
0
VERTEX
8
0
10
154.925
20
-6
42
0.4142136
0
VERTEX
8
0
10
155.925
20
-7
0
VERTEX
8
0
10
167.925
20
-7
42
0.4142136
0
VERTEX
8
0
10
168.925
20
-6
0
VERTEX
8
0
10
168.925
20
6
42
0.4142136
0
VERTEX
8
0
10
167.925
20
7
0
VERTEX
8
0
10
155.925
20
7
42
0.4142136
0
VERTEX
8
0
10
154.925
20
6
0
SEQEND
0
POLYLINE
8
0
6
CONTINUOUS
66
1
70
1
0
VERTEX
8
0
10
178.7375
20
-6
42
0.4142136
0
VERTEX
8
0
10
179.7375
20
-7
0
VERTEX
8
0
10
191.7375
20
-7
42
0.4142136
0
VERTEX
8
0
10
192.7375
20
-6
0
VERTEX
8
0
10
192.7375
20
6
42
0.4142136
0
VERTEX
8
0
10
191.7375
20
7
0
VERTEX
8
0
10
179.7375
20
7
42
0.4142136
0
VERTEX
8
0
10
178.7375
20
6
0
SEQEND
0
POLYLINE
8
0
6
CONTINUOUS
66
1
70
1
0
VERTEX
8
0
10
197.7875
20
-6
42
0.4142136
0
VERTEX
8
0
10
198.7875
20
-7
0
VERTEX
8
0
10
210.7875
20
-7
42
0.4142136
0
VERTEX
8
0
10
211.7875
20
-6
0
VERTEX
8
0
10
211.7875
20
6
42
0.4142136
0
VERTEX
8
0
10
210.7875
20
7
0
VERTEX
8
0
10
198.7875
20
7
42
0.4142136
0
VERTEX
8
0
10
197.7875
20
6
0
SEQEND
0
POLYLINE
8
0
6
CONTINUOUS
66
1
70
1
0
VERTEX
8
0
10
216.8375
20
-6
42
0.4142136
0
VERTEX
8
0
10
217.8375
20
-7
0
VERTEX
8
0
10
229.8375
20
-7
42
0.4142136
0
VERTEX
8
0
10
230.8375
20
-6
0
VERTEX
8
0
10
230.8375
20
6
42
0.4142136
0
VERTEX
8
0
10
229.8375
20
7
0
VERTEX
8
0
10
217.8375
20
7
42
0.4142136
0
VERTEX
8
0
10
216.8375
20
6
0
SEQEND
0
POLYLINE
8
0
6
CONTINUOUS
66
1
70
1
0
VERTEX
8
0
10
235.8875
20
-6
42
0.4142136
0
VERTEX
8
0
10
236.8875
20
-7
0
VERTEX
8
0
10
248.8875
20
-7
42
0.4142136
0
VERTEX
8
0
10
249.8875
20
-6
0
VERTEX
8
0
10
249.8875
20
6
42
0.4142136
0
VERTEX
8
0
10
248.8875
20
7
0
VERTEX
8
0
10
236.8875
20
7
42
0.4142136
0
VERTEX
8
0
10
235.8875
20
6
0
SEQEND
0
POLYLINE
8
0
6
CONTINUOUS
66
1
70
1
0
VERTEX
8
0
10
259.7
20
-6
42
0.4142136
0
VERTEX
8
0
10
260.7
20
-7
0
VERTEX
8
0
10
272.7
20
-7
42
0.4142136
0
VERTEX
8
0
10
273.7
20
-6
0
VERTEX
8
0
10
273.7
20
6
42
0.4142136
0
VERTEX
8
0
10
272.7
20
7
0
VERTEX
8
0
10
260.7
20
7
42
0.4142136
0
VERTEX
8
0
10
259.7
20
6
0
SEQEND
0
POLYLINE
8
0
6
CONTINUOUS
66
1
70
1
0
VERTEX
8
0
10
278.75
20
-6
42
0.4142136
0
VERTEX
8
0
10
279.75
20
-7
0
VERTEX
8
0
10
291.75
20
-7
42
0.4142136
0
VERTEX
8
0
10
292.75
20
-6
0
VERTEX
8
0
10
292.75
20
6
42
0.4142136
0
VERTEX
8
0
10
291.75
20
7
0
VERTEX
8
0
10
279.75
20
7
42
0.4142136
0
VERTEX
8
0
10
278.75
20
6
0
SEQEND
0
POLYLINE
8
0
6
CONTINUOUS
66
1
70
1
0
VERTEX
8
0
10
297.8
20
-6
42
0.4142136
0
VERTEX
8
0
10
298.8
20
-7
0
VERTEX
8
0
10
310.8
20
-7
42
0.4142136
0
VERTEX
8
0
10
311.8
20
-6
0
VERTEX
8
0
10
311.8
20
6
42
0.4142136
0
VERTEX
8
0
10
310.8
20
7
0
VERTEX
8
0
10
298.8
20
7
42
0.4142136
0
VERTEX
8
0
10
297.8
20
6
0
SEQEND
0
POLYLINE
8
0
6
CONTINUOUS
66
1
70
1
0
VERTEX
8
0
10
316.85
20
-6
42
0.4142136
0
VERTEX
8
0
10
317.85
20
-7
0
VERTEX
8
0
10
329.85
20
-7
42
0.4142136
0
VERTEX
8
0
10
330.85
20
-6
0
VERTEX
8
0
10
330.85
20
6
42
0.4142136
0
VERTEX
8
0
10
329.85
20
7
0
VERTEX
8
0
10
317.85
20
7
42
0.4142136
0
VERTEX
8
0
10
316.85
20
6
0
SEQEND
0
POLYLINE
8
0
6
CONTINUOUS
66
1
70
1
0
VERTEX
8
0
10
-7
20
-25.05
42
0.4142136
0
VERTEX
8
0
10
-6
20
-26.05
0
VERTEX
8
0
10
6
20
-26.05
42
0.4142136
0
VERTEX
8
0
10
7
20
-25.05
0
VERTEX
8
0
10
7
20
-13.05
42
0.4142136
0
VERTEX
8
0
10
6
20
-12.05
0
VERTEX
8
0
10
-6
20
-12.05
42
0.4142136
0
VERTEX
8
0
10
-7
20
-13.05
0
SEQEND
0
POLYLINE
8
0
6
CONTINUOUS
66
1
70
1
0
VERTEX
8
0
10
12.05
20
-25.05
42
0.4142136
0
VERTEX
8
0
10
13.05
20
-26.05
0
VERTEX
8
0
10
25.05
20
-26.05
42
0.4142136
0
VERTEX
8
0
10
26.05
20
-25.05
0
VERTEX
8
0
10
26.05
20
-13.05
42
0.4142136
0
VERTEX
8
0
10
25.05
20
-12.05
0
VERTEX
8
0
10
13.05
20
-12.05
42
0.4142136
0
VERTEX
8
0
10
12.05
20
-13.05
0
SEQEND
0
POLYLINE
8
0
6
CONTINUOUS
66
1
70
1
0
VERTEX
8
0
10
31.1
20
-25.05
42
0.4142136
0
VERTEX
8
0
10
32.1
20
-26.05
0
VERTEX
8
0
10
44.1
20
-26.05
42
0.4142136
0
VERTEX
8
0
10
45.1
20
-25.05
0
VERTEX
8
0
10
45.1
20
-13.05
42
0.4142136
0
VERTEX
8
0
10
44.1
20
-12.05
0
VERTEX
8
0
10
32.1
20
-12.05
42
0.4142136
0
VERTEX
8
0
10
31.1
20
-13.05
0
SEQEND
0
POLYLINE
8
0
6
CONTINUOUS
66
1
70
1
0
VERTEX
8
0
10
50.15
20
-25.05
42
0.4142136
0
VERTEX
8
0
10
51.15
20
-26.05
0
VERTEX
8
0
10
63.15
20
-26.05
42
0.4142136
0
VERTEX
8
0
10
64.15
20
-25.05
0
VERTEX
8
0
10
64.15
20
-13.05
42
0.4142136
0
VERTEX
8
0
10
63.15
20
-12.05
0
VERTEX
8
0
10
51.15
20
-12.05
42
0.4142136
0
VERTEX
8
0
10
50.15
20
-13.05
0
SEQEND
0
POLYLINE
8
0
6
CONTINUOUS
66
1
70
1
0
VERTEX
8
0
10
69.2
20
-25.05
42
0.4142136
0
VERTEX
8
0
10
70.2
20
-26.05
0
VERTEX
8
0
10
82.2
20
-26.05
42
0.4142136
0
VERTEX
8
0
10
83.2
20
-25.05
0
VERTEX
8
0
10
83.2
20
-13.05
42
0.4142136
0
VERTEX
8
0
10
82.2
20
-12.05
0
VERTEX
8
0
10
70.2
20
-12.05
42
0.4142136
0
VERTEX
8
0
10
69.2
20
-13.05
0
SEQEND
0
POLYLINE
8
0
6
CONTINUOUS
66
1
70
1
0
VERTEX
8
0
10
88.25
20
-25.05
42
0.4142136
0
VERTEX
8
0
10
89.25
20
-26.05
0
VERTEX
8
0
10
101.25
20
-26.05
42
0.4142136
0
VERTEX
8
0
10
102.25
20
-25.05
0
VERTEX
8
0
10
102.25
20
-13.05
42
0.4142136
0
VERTEX
8
0
10
101.25
20
-12.05
0
VERTEX
8
0
10
89.25
20
-12.05
42
0.4142136
0
VERTEX
8
0
10
88.25
20
-13.05
0
SEQEND
0
POLYLINE
8
0
6
CONTINUOUS
66
1
70
1
0
VERTEX
8
0
10
107.3
20
-25.05
42
0.4142136
0
VERTEX
8
0
10
108.3
20
-26.05
0
VERTEX
8
0
10
120.3
20
-26.05
42
0.4142136
0
VERTEX
8
0
10
121.3
20
-25.05
0
VERTEX
8
0
10
121.3
20
-13.05
42
0.4142136
0
VERTEX
8
0
10
120.3
20
-12.05
0
VERTEX
8
0
10
108.3
20
-12.05
42
0.4142136
0
VERTEX
8
0
10
107.3
20
-13.05
0
SEQEND
0
POLYLINE
8
0
6
CONTINUOUS
66
1
70
1
0
VERTEX
8
0
10
126.35
20
-25.05
42
0.4142136
0
VERTEX
8
0
10
127.35
20
-26.05
0
VERTEX
8
0
10
139.35
20
-26.05
42
0.4142136
0
VERTEX
8
0
10
140.35
20
-25.05
0
VERTEX
8
0
10
140.35
20
-13.05
42
0.4142136
0
VERTEX
8
0
10
139.35
20
-12.05
0
VERTEX
8
0
10
127.35
20
-12.05
42
0.4142136
0
VERTEX
8
0
10
126.35
20
-13.05
0
SEQEND
0
POLYLINE
8
0
6
CONTINUOUS
66
1
70
1
0
VERTEX
8
0
10
145.4
20
-25.05
42
0.4142136
0
VERTEX
8
0
10
146.4
20
-26.05
0
VERTEX
8
0
10
158.4
20
-26.05
42
0.4142136
0
VERTEX
8
0
10
159.4
20
-25.05
0
VERTEX
8
0
10
159.4
20
-13.05
42
0.4142136
0
VERTEX
8
0
10
158.4
20
-12.05
0
VERTEX
8
0
10
146.4
20
-12.05
42
0.4142136
0
VERTEX
8
0
10
145.4
20
-13.05
0
SEQEND
0
POLYLINE
8
0
6
CONTINUOUS
66
1
70
1
0
VERTEX
8
0
10
164.45
20
-25.05
42
0.4142136
0
VERTEX
8
0
10
165.45
20
-26.05
0
VERTEX
8
0
10
177.45
20
-26.05
42
0.4142136
0
VERTEX
8
0
10
178.45
20
-25.05
0
VERTEX
8
0
10
178.45
20
-13.05
42
0.4142136
0
VERTEX
8
0
10
177.45
20
-12.05
0
VERTEX
8
0
10
165.45
20
-12.05
42
0.4142136
0
VERTEX
8
0
10
164.45
20
-13.05
0
SEQEND
0
POLYLINE
8
0
6
CONTINUOUS
66
1
70
1
0
VERTEX
8
0
10
183.5
20
-25.05
42
0.4142136
0
VERTEX
8
0
10
184.5
20
-26.05
0
VERTEX
8
0
10
196.5
20
-26.05
42
0.4142136
0
VERTEX
8
0
10
197.5
20
-25.05
0
VERTEX
8
0
10
197.5
20
-13.05
42
0.4142136
0
VERTEX
8
0
10
196.5
20
-12.05
0
VERTEX
8
0
10
184.5
20
-12.05
42
0.4142136
0
VERTEX
8
0
10
183.5
20
-13.05
0
SEQEND
0
POLYLINE
8
0
6
CONTINUOUS
66
1
70
1
0
VERTEX
8
0
10
202.55
20
-25.05
42
0.4142136
0
VERTEX
8
0
10
203.55
20
-26.05
0
VERTEX
8
0
10
215.55
20
-26.05
42
0.4142136
0
VERTEX
8
0
10
216.55
20
-25.05
0
VERTEX
8
0
10
216.55
20
-13.05
42
0.4142136
0
VERTEX
8
0
10
215.55
20
-12.05
0
VERTEX
8
0
10
203.55
20
-12.05
42
0.4142136
0
VERTEX
8
0
10
202.55
20
-13.05
0
SEQEND
0
POLYLINE
8
0
6
CONTINUOUS
66
1
70
1
0
VERTEX
8
0
10
221.6
20
-25.05
42
0.4142136
0
VERTEX
8
0
10
222.6
20
-26.05
0
VERTEX
8
0
10
234.6
20
-26.05
42
0.4142136
0
VERTEX
8
0
10
235.6
20
-25.05
0
VERTEX
8
0
10
235.6
20
-13.05
42
0.4142136
0
VERTEX
8
0
10
234.6
20
-12.05
0
VERTEX
8
0
10
222.6
20
-12.05
42
0.4142136
0
VERTEX
8
0
10
221.6
20
-13.05
0
SEQEND
0
POLYLINE
8
0
6
CONTINUOUS
66
1
70
1
0
VERTEX
8
0
10
250.175
20
-25.05
42
0.4142136
0
VERTEX
8
0
10
251.175
20
-26.05
0
VERTEX
8
0
10
263.175
20
-26.05
42
0.4142136
0
VERTEX
8
0
10
264.175
20
-25.05
0
VERTEX
8
0
10
264.175
20
-13.05
42
0.4142136
0
VERTEX
8
0
10
263.175
20
-12.05
0
VERTEX
8
0
10
251.175
20
-12.05
42
0.4142136
0
VERTEX
8
0
10
250.175
20
-13.05
0
SEQEND
0
POLYLINE
8
0
6
CONTINUOUS
66
1
70
1
0
VERTEX
8
0
10
278.75
20
-25.05
42
0.4142136
0
VERTEX
8
0
10
279.75
20
-26.05
0
VERTEX
8
0
10
291.75
20
-26.05
42
0.4142136
0
VERTEX
8
0
10
292.75
20
-25.05
0
VERTEX
8
0
10
292.75
20
-13.05
42
0.4142136
0
VERTEX
8
0
10
291.75
20
-12.05
0
VERTEX
8
0
10
279.75
20
-12.05
42
0.4142136
0
VERTEX
8
0
10
278.75
20
-13.05
0
SEQEND
0
POLYLINE
8
0
6
CONTINUOUS
66
1
70
1
0
VERTEX
8
0
10
297.8
20
-25.05
42
0.4142136
0
VERTEX
8
0
10
298.8
20
-26.05
0
VERTEX
8
0
10
310.8
20
-26.05
42
0.4142136
0
VERTEX
8
0
10
311.8
20
-25.05
0
VERTEX
8
0
10
311.8
20
-13.05
42
0.4142136
0
VERTEX
8
0
10
310.8
20
-12.05
0
VERTEX
8
0
10
298.8
20
-12.05
42
0.4142136
0
VERTEX
8
0
10
297.8
20
-13.05
0
SEQEND
0
POLYLINE
8
0
6
CONTINUOUS
66
1
70
1
0
VERTEX
8
0
10
316.85
20
-25.05
42
0.4142136
0
VERTEX
8
0
10
317.85
20
-26.05
0
VERTEX
8
0
10
329.85
20
-26.05
42
0.4142136
0
VERTEX
8
0
10
330.85
20
-25.05
0
VERTEX
8
0
10
330.85
20
-13.05
42
0.4142136
0
VERTEX
8
0
10
329.85
20
-12.05
0
VERTEX
8
0
10
317.85
20
-12.05
42
0.4142136
0
VERTEX
8
0
10
316.85
20
-13.05
0
SEQEND
0
POLYLINE
8
0
6
CONTINUOUS
66
1
70
1
0
VERTEX
8
0
10
-2.2375
20
-44.1
42
0.4142136
0
VERTEX
8
0
10
-1.2375
20
-45.1
0
VERTEX
8
0
10
10.7625
20
-45.1
42
0.4142136
0
VERTEX
8
0
10
11.7625
20
-44.1
0
VERTEX
8
0
10
11.7625
20
-32.1
42
0.4142136
0
VERTEX
8
0
10
10.7625
20
-31.1
0
VERTEX
8
0
10
-1.2375
20
-31.1
42
0.4142136
0
VERTEX
8
0
10
-2.2375
20
-32.1
0
SEQEND
0
POLYLINE
8
0
6
CONTINUOUS
66
1
70
1
0
VERTEX
8
0
10
40.625
20
-44.1
42
0.4142136
0
VERTEX
8
0
10
41.625
20
-45.1
0
VERTEX
8
0
10
53.625
20
-45.1
42
0.4142136
0
VERTEX
8
0
10
54.625
20
-44.1
0
VERTEX
8
0
10
54.625
20
-32.1
42
0.4142136
0
VERTEX
8
0
10
53.625
20
-31.1
0
VERTEX
8
0
10
41.625
20
-31.1
42
0.4142136
0
VERTEX
8
0
10
40.625
20
-32.1
0
SEQEND
0
POLYLINE
8
0
6
CONTINUOUS
66
1
70
1
0
VERTEX
8
0
10
59.675
20
-44.1
42
0.4142136
0
VERTEX
8
0
10
60.675
20
-45.1
0
VERTEX
8
0
10
72.675
20
-45.1
42
0.4142136
0
VERTEX
8
0
10
73.675
20
-44.1
0
VERTEX
8
0
10
73.675
20
-32.1
42
0.4142136
0
VERTEX
8
0
10
72.675
20
-31.1
0
VERTEX
8
0
10
60.675
20
-31.1
42
0.4142136
0
VERTEX
8
0
10
59.675
20
-32.1
0
SEQEND
0
POLYLINE
8
0
6
CONTINUOUS
66
1
70
1
0
VERTEX
8
0
10
78.725
20
-44.1
42
0.4142136
0
VERTEX
8
0
10
79.725
20
-45.1
0
VERTEX
8
0
10
91.725
20
-45.1
42
0.4142136
0
VERTEX
8
0
10
92.725
20
-44.1
0
VERTEX
8
0
10
92.725
20
-32.1
42
0.4142136
0
VERTEX
8
0
10
91.725
20
-31.1
0
VERTEX
8
0
10
79.725
20
-31.1
42
0.4142136
0
VERTEX
8
0
10
78.725
20
-32.1
0
SEQEND
0
POLYLINE
8
0
6
CONTINUOUS
66
1
70
1
0
VERTEX
8
0
10
97.775
20
-44.1
42
0.4142136
0
VERTEX
8
0
10
98.775
20
-45.1
0
VERTEX
8
0
10
110.775
20
-45.1
42
0.4142136
0
VERTEX
8
0
10
111.775
20
-44.1
0
VERTEX
8
0
10
111.775
20
-32.1
42
0.4142136
0
VERTEX
8
0
10
110.775
20
-31.1
0
VERTEX
8
0
10
98.775
20
-31.1
42
0.4142136
0
VERTEX
8
0
10
97.775
20
-32.1
0
SEQEND
0
POLYLINE
8
0
6
CONTINUOUS
66
1
70
1
0
VERTEX
8
0
10
135.875
20
-44.1
42
0.4142136
0
VERTEX
8
0
10
136.875
20
-45.1
0
VERTEX
8
0
10
148.875
20
-45.1
42
0.4142136
0
VERTEX
8
0
10
149.875
20
-44.1
0
VERTEX
8
0
10
149.875
20
-32.1
42
0.4142136
0
VERTEX
8
0
10
148.875
20
-31.1
0
VERTEX
8
0
10
136.875
20
-31.1
42
0.4142136
0
VERTEX
8
0
10
135.875
20
-32.1
0
SEQEND
0
POLYLINE
8
0
6
CONTINUOUS
66
1
70
1
0
VERTEX
8
0
10
154.925
20
-44.1
42
0.4142136
0
VERTEX
8
0
10
155.925
20
-45.1
0
VERTEX
8
0
10
167.925
20
-45.1
42
0.4142136
0
VERTEX
8
0
10
168.925
20
-44.1
0
VERTEX
8
0
10
168.925
20
-32.1
42
0.4142136
0
VERTEX
8
0
10
167.925
20
-31.1
0
VERTEX
8
0
10
155.925
20
-31.1
42
0.4142136
0
VERTEX
8
0
10
154.925
20
-32.1
0
SEQEND
0
POLYLINE
8
0
6
CONTINUOUS
66
1
70
1
0
VERTEX
8
0
10
173.975
20
-44.1
42
0.4142136
0
VERTEX
8
0
10
174.975
20
-45.1
0
VERTEX
8
0
10
186.975
20
-45.1
42
0.4142136
0
VERTEX
8
0
10
187.975
20
-44.1
0
VERTEX
8
0
10
187.975
20
-32.1
42
0.4142136
0
VERTEX
8
0
10
186.975
20
-31.1
0
VERTEX
8
0
10
174.975
20
-31.1
42
0.4142136
0
VERTEX
8
0
10
173.975
20
-32.1
0
SEQEND
0
POLYLINE
8
0
6
CONTINUOUS
66
1
70
1
0
VERTEX
8
0
10
193.025
20
-44.1
42
0.4142136
0
VERTEX
8
0
10
194.025
20
-45.1
0
VERTEX
8
0
10
206.025
20
-45.1
42
0.4142136
0
VERTEX
8
0
10
207.025
20
-44.1
0
VERTEX
8
0
10
207.025
20
-32.1
42
0.4142136
0
VERTEX
8
0
10
206.025
20
-31.1
0
VERTEX
8
0
10
194.025
20
-31.1
42
0.4142136
0
VERTEX
8
0
10
193.025
20
-32.1
0
SEQEND
0
POLYLINE
8
0
6
CONTINUOUS
66
1
70
1
0
VERTEX
8
0
10
212.075
20
-44.1
42
0.4142136
0
VERTEX
8
0
10
213.075
20
-45.1
0
VERTEX
8
0
10
225.075
20
-45.1
42
0.4142136
0
VERTEX
8
0
10
226.075
20
-44.1
0
VERTEX
8
0
10
226.075
20
-32.1
42
0.4142136
0
VERTEX
8
0
10
225.075
20
-31.1
0
VERTEX
8
0
10
213.075
20
-31.1
42
0.4142136
0
VERTEX
8
0
10
212.075
20
-32.1
0
SEQEND
0
POLYLINE
8
0
6
CONTINUOUS
66
1
70
1
0
VERTEX
8
0
10
231.125
20
-44.1
42
0.4142136
0
VERTEX
8
0
10
232.125
20
-45.1
0
VERTEX
8
0
10
244.125
20
-45.1
42
0.4142136
0
VERTEX
8
0
10
245.125
20
-44.1
0
VERTEX
8
0
10
245.125
20
-32.1
42
0.4142136
0
VERTEX
8
0
10
244.125
20
-31.1
0
VERTEX
8
0
10
232.125
20
-31.1
42
0.4142136
0
VERTEX
8
0
10
231.125
20
-32.1
0
SEQEND
0
POLYLINE
8
0
6
CONTINUOUS
66
1
70
1
0
VERTEX
8
0
10
254.9375
20
-44.1
42
0.4142136
0
VERTEX
8
0
10
255.9375
20
-45.1
0
VERTEX
8
0
10
267.9375
20
-45.1
42
0.4142136
0
VERTEX
8
0
10
268.9375
20
-44.1
0
VERTEX
8
0
10
268.9375
20
-32.1
42
0.4142136
0
VERTEX
8
0
10
267.9375
20
-31.1
0
VERTEX
8
0
10
255.9375
20
-31.1
42
0.4142136
0
VERTEX
8
0
10
254.9375
20
-32.1
0
SEQEND
0
POLYLINE
8
0
6
CONTINUOUS
66
1
70
1
0
VERTEX
8
0
10
278.75
20
-44.1
42
0.4142136
0
VERTEX
8
0
10
279.75
20
-45.1
0
VERTEX
8
0
10
291.75
20
-45.1
42
0.4142136
0
VERTEX
8
0
10
292.75
20
-44.1
0
VERTEX
8
0
10
292.75
20
-32.1
42
0.4142136
0
VERTEX
8
0
10
291.75
20
-31.1
0
VERTEX
8
0
10
279.75
20
-31.1
42
0.4142136
0
VERTEX
8
0
10
278.75
20
-32.1
0
SEQEND
0
POLYLINE
8
0
6
CONTINUOUS
66
1
70
1
0
VERTEX
8
0
10
297.8
20
-44.1
42
0.4142136
0
VERTEX
8
0
10
298.8
20
-45.1
0
VERTEX
8
0
10
310.8
20
-45.1
42
0.4142136
0
VERTEX
8
0
10
311.8
20
-44.1
0
VERTEX
8
0
10
311.8
20
-32.1
42
0.4142136
0
VERTEX
8
0
10
310.8
20
-31.1
0
VERTEX
8
0
10
298.8
20
-31.1
42
0.4142136
0
VERTEX
8
0
10
297.8
20
-32.1
0
SEQEND
0
POLYLINE
8
0
6
CONTINUOUS
66
1
70
1
0
VERTEX
8
0
10
316.85
20
-44.1
42
0.4142136
0
VERTEX
8
0
10
317.85
20
-45.1
0
VERTEX
8
0
10
329.85
20
-45.1
42
0.4142136
0
VERTEX
8
0
10
330.85
20
-44.1
0
VERTEX
8
0
10
330.85
20
-32.1
42
0.4142136
0
VERTEX
8
0
10
329.85
20
-31.1
0
VERTEX
8
0
10
317.85
20
-31.1
42
0.4142136
0
VERTEX
8
0
10
316.85
20
-32.1
0
SEQEND
0
POLYLINE
8
0
6
CONTINUOUS
66
1
70
1
0
VERTEX
8
0
10
0.14375
20
-63.15
42
0.4142136
0
VERTEX
8
0
10
1.14375
20
-64.15
0
VERTEX
8
0
10
13.14375
20
-64.15
42
0.4142136
0
VERTEX
8
0
10
14.14375
20
-63.15
0
VERTEX
8
0
10
14.14375
20
-51.15
42
0.4142136
0
VERTEX
8
0
10
13.14375
20
-50.15
0
VERTEX
8
0
10
1.14375
20
-50.15
42
0.4142136
0
VERTEX
8
0
10
0.14375
20
-51.15
0
SEQEND
0
POLYLINE
8
0
6
CONTINUOUS
66
1
70
1
0
VERTEX
8
0
10
26.3375
20
-63.15
42
0.4142136
0
VERTEX
8
0
10
27.3375
20
-64.15
0
VERTEX
8
0
10
39.3375
20
-64.15
42
0.4142136
0
VERTEX
8
0
10
40.3375
20
-63.15
0
VERTEX
8
0
10
40.3375
20
-51.15
42
0.4142136
0
VERTEX
8
0
10
39.3375
20
-50.15
0
VERTEX
8
0
10
27.3375
20
-50.15
42
0.4142136
0
VERTEX
8
0
10
26.3375
20
-51.15
0
SEQEND
0
POLYLINE
8
0
6
CONTINUOUS
66
1
70
1
0
VERTEX
8
0
10
45.3875
20
-63.15
42
0.4142136
0
VERTEX
8
0
10
46.3875
20
-64.15
0
VERTEX
8
0
10
58.3875
20
-64.15
42
0.4142136
0
VERTEX
8
0
10
59.3875
20
-63.15
0
VERTEX
8
0
10
59.3875
20
-51.15
42
0.4142136
0
VERTEX
8
0
10
58.3875
20
-50.15
0
VERTEX
8
0
10
46.3875
20
-50.15
42
0.4142136
0
VERTEX
8
0
10
45.3875
20
-51.15
0
SEQEND
0
POLYLINE
8
0
6
CONTINUOUS
66
1
70
1
0
VERTEX
8
0
10
64.4375
20
-63.15
42
0.4142136
0
VERTEX
8
0
10
65.4375
20
-64.15
0
VERTEX
8
0
10
77.4375
20
-64.15
42
0.4142136
0
VERTEX
8
0
10
78.4375
20
-63.15
0
VERTEX
8
0
10
78.4375
20
-51.15
42
0.4142136
0
VERTEX
8
0
10
77.4375
20
-50.15
0
VERTEX
8
0
10
65.4375
20
-50.15
42
0.4142136
0
VERTEX
8
0
10
64.4375
20
-51.15
0
SEQEND
0
POLYLINE
8
0
6
CONTINUOUS
66
1
70
1
0
VERTEX
8
0
10
83.4875
20
-63.15
42
0.4142136
0
VERTEX
8
0
10
84.4875
20
-64.15
0
VERTEX
8
0
10
96.4875
20
-64.15
42
0.4142136
0
VERTEX
8
0
10
97.4875
20
-63.15
0
VERTEX
8
0
10
97.4875
20
-51.15
42
0.4142136
0
VERTEX
8
0
10
96.4875
20
-50.15
0
VERTEX
8
0
10
84.4875
20
-50.15
42
0.4142136
0
VERTEX
8
0
10
83.4875
20
-51.15
0
SEQEND
0
POLYLINE
8
0
6
CONTINUOUS
66
1
70
1
0
VERTEX
8
0
10
102.5375
20
-63.15
42
0.4142136
0
VERTEX
8
0
10
103.5375
20
-64.15
0
VERTEX
8
0
10
115.5375
20
-64.15
42
0.4142136
0
VERTEX
8
0
10
116.5375
20
-63.15
0
VERTEX
8
0
10
116.5375
20
-51.15
42
0.4142136
0
VERTEX
8
0
10
115.5375
20
-50.15
0
VERTEX
8
0
10
103.5375
20
-50.15
42
0.4142136
0
VERTEX
8
0
10
102.5375
20
-51.15
0
SEQEND
0
POLYLINE
8
0
6
CONTINUOUS
66
1
70
1
0
VERTEX
8
0
10
121.5875
20
-63.15
42
0.4142136
0
VERTEX
8
0
10
122.5875
20
-64.15
0
VERTEX
8
0
10
134.5875
20
-64.15
42
0.4142136
0
VERTEX
8
0
10
135.5875
20
-63.15
0
VERTEX
8
0
10
135.5875
20
-51.15
42
0.4142136
0
VERTEX
8
0
10
134.5875
20
-50.15
0
VERTEX
8
0
10
122.5875
20
-50.15
42
0.4142136
0
VERTEX
8
0
10
121.5875
20
-51.15
0
SEQEND
0
POLYLINE
8
0
6
CONTINUOUS
66
1
70
1
0
VERTEX
8
0
10
140.6375
20
-63.15
42
0.4142136
0
VERTEX
8
0
10
141.6375
20
-64.15
0
VERTEX
8
0
10
153.6375
20
-64.15
42
0.4142136
0
VERTEX
8
0
10
154.6375
20
-63.15
0
VERTEX
8
0
10
154.6375
20
-51.15
42
0.4142136
0
VERTEX
8
0
10
153.6375
20
-50.15
0
VERTEX
8
0
10
141.6375
20
-50.15
42
0.4142136
0
VERTEX
8
0
10
140.6375
20
-51.15
0
SEQEND
0
POLYLINE
8
0
6
CONTINUOUS
66
1
70
1
0
VERTEX
8
0
10
159.6875
20
-63.15
42
0.4142136
0
VERTEX
8
0
10
160.6875
20
-64.15
0
VERTEX
8
0
10
172.6875
20
-64.15
42
0.4142136
0
VERTEX
8
0
10
173.6875
20
-63.15
0
VERTEX
8
0
10
173.6875
20
-51.15
42
0.4142136
0
VERTEX
8
0
10
172.6875
20
-50.15
0
VERTEX
8
0
10
160.6875
20
-50.15
42
0.4142136
0
VERTEX
8
0
10
159.6875
20
-51.15
0
SEQEND
0
POLYLINE
8
0
6
CONTINUOUS
66
1
70
1
0
VERTEX
8
0
10
178.7375
20
-63.15
42
0.4142136
0
VERTEX
8
0
10
179.7375
20
-64.15
0
VERTEX
8
0
10
191.7375
20
-64.15
42
0.4142136
0
VERTEX
8
0
10
192.7375
20
-63.15
0
VERTEX
8
0
10
192.7375
20
-51.15
42
0.4142136
0
VERTEX
8
0
10
191.7375
20
-50.15
0
VERTEX
8
0
10
179.7375
20
-50.15
42
0.4142136
0
VERTEX
8
0
10
178.7375
20
-51.15
0
SEQEND
0
POLYLINE
8
0
6
CONTINUOUS
66
1
70
1
0
VERTEX
8
0
10
197.7875
20
-63.15
42
0.4142136
0
VERTEX
8
0
10
198.7875
20
-64.15
0
VERTEX
8
0
10
210.7875
20
-64.15
42
0.4142136
0
VERTEX
8
0
10
211.7875
20
-63.15
0
VERTEX
8
0
10
211.7875
20
-51.15
42
0.4142136
0
VERTEX
8
0
10
210.7875
20
-50.15
0
VERTEX
8
0
10
198.7875
20
-50.15
42
0.4142136
0
VERTEX
8
0
10
197.7875
20
-51.15
0
SEQEND
0
POLYLINE
8
0
6
CONTINUOUS
66
1
70
1
0
VERTEX
8
0
10
216.8375
20
-63.15
42
0.4142136
0
VERTEX
8
0
10
217.8375
20
-64.15
0
VERTEX
8
0
10
229.8375
20
-64.15
42
0.4142136
0
VERTEX
8
0
10
230.8375
20
-63.15
0
VERTEX
8
0
10
230.8375
20
-51.15
42
0.4142136
0
VERTEX
8
0
10
229.8375
20
-50.15
0
VERTEX
8
0
10
217.8375
20
-50.15
42
0.4142136
0
VERTEX
8
0
10
216.8375
20
-51.15
0
SEQEND
0
POLYLINE
8
0
6
CONTINUOUS
66
1
70
1
0
VERTEX
8
0
10
247.79375
20
-63.15
42
0.4142136
0
VERTEX
8
0
10
248.79375
20
-64.15
0
VERTEX
8
0
10
260.79375
20
-64.15
42
0.4142136
0
VERTEX
8
0
10
261.79375
20
-63.15
0
VERTEX
8
0
10
261.79375
20
-51.15
42
0.4142136
0
VERTEX
8
0
10
260.79375
20
-50.15
0
VERTEX
8
0
10
248.79375
20
-50.15
42
0.4142136
0
VERTEX
8
0
10
247.79375
20
-51.15
0
SEQEND
0
POLYLINE
8
0
6
CONTINUOUS
66
1
70
1
0
VERTEX
8
0
10
4.90625
20
-82.2
42
0.4142136
0
VERTEX
8
0
10
5.90625
20
-83.2
0
VERTEX
8
0
10
17.90625
20
-83.2
42
0.4142136
0
VERTEX
8
0
10
18.90625
20
-82.2
0
VERTEX
8
0
10
18.90625
20
-70.2
42
0.4142136
0
VERTEX
8
0
10
17.90625
20
-69.2
0
VERTEX
8
0
10
5.90625
20
-69.2
42
0.4142136
0
VERTEX
8
0
10
4.90625
20
-70.2
0
SEQEND
0
POLYLINE
8
0
6
CONTINUOUS
66
1
70
1
0
VERTEX
8
0
10
35.8625
20
-82.2
42
0.4142136
0
VERTEX
8
0
10
36.8625
20
-83.2
0
VERTEX
8
0
10
48.8625
20
-83.2
42
0.4142136
0
VERTEX
8
0
10
49.8625
20
-82.2
0
VERTEX
8
0
10
49.8625
20
-70.2
42
0.4142136
0
VERTEX
8
0
10
48.8625
20
-69.2
0
VERTEX
8
0
10
36.8625
20
-69.2
42
0.4142136
0
VERTEX
8
0
10
35.8625
20
-70.2
0
SEQEND
0
POLYLINE
8
0
6
CONTINUOUS
66
1
70
1
0
VERTEX
8
0
10
73.9625
20
-82.2
42
0.4142136
0
VERTEX
8
0
10
74.9625
20
-83.2
0
VERTEX
8
0
10
86.9625
20
-83.2
42
0.4142136
0
VERTEX
8
0
10
87.9625
20
-82.2
0
VERTEX
8
0
10
87.9625
20
-70.2
42
0.4142136
0
VERTEX
8
0
10
86.9625
20
-69.2
0
VERTEX
8
0
10
74.9625
20
-69.2
42
0.4142136
0
VERTEX
8
0
10
73.9625
20
-70.2
0
SEQEND
0
POLYLINE
8
0
6
CONTINUOUS
66
1
70
1
0
VERTEX
8
0
10
93.0125
20
-82.2
42
0.4142136
0
VERTEX
8
0
10
94.0125
20
-83.2
0
VERTEX
8
0
10
106.0125
20
-83.2
42
0.4142136
0
VERTEX
8
0
10
107.0125
20
-82.2
0
VERTEX
8
0
10
107.0125
20
-70.2
42
0.4142136
0
VERTEX
8
0
10
106.0125
20
-69.2
0
VERTEX
8
0
10
94.0125
20
-69.2
42
0.4142136
0
VERTEX
8
0
10
93.0125
20
-70.2
0
SEQEND
0
POLYLINE
8
0
6
CONTINUOUS
66
1
70
1
0
VERTEX
8
0
10
112.0625
20
-82.2
42
0.4142136
0
VERTEX
8
0
10
113.0625
20
-83.2
0
VERTEX
8
0
10
125.0625
20
-83.2
42
0.4142136
0
VERTEX
8
0
10
126.0625
20
-82.2
0
VERTEX
8
0
10
126.0625
20
-70.2
42
0.4142136
0
VERTEX
8
0
10
125.0625
20
-69.2
0
VERTEX
8
0
10
113.0625
20
-69.2
42
0.4142136
0
VERTEX
8
0
10
112.0625
20
-70.2
0
SEQEND
0
POLYLINE
8
0
6
CONTINUOUS
66
1
70
1
0
VERTEX
8
0
10
131.1125
20
-82.2
42
0.4142136
0
VERTEX
8
0
10
132.1125
20
-83.2
0
VERTEX
8
0
10
144.1125
20
-83.2
42
0.4142136
0
VERTEX
8
0
10
145.1125
20
-82.2
0
VERTEX
8
0
10
145.1125
20
-70.2
42
0.4142136
0
VERTEX
8
0
10
144.1125
20
-69.2
0
VERTEX
8
0
10
132.1125
20
-69.2
42
0.4142136
0
VERTEX
8
0
10
131.1125
20
-70.2
0
SEQEND
0
POLYLINE
8
0
6
CONTINUOUS
66
1
70
1
0
VERTEX
8
0
10
150.1625
20
-82.2
42
0.4142136
0
VERTEX
8
0
10
151.1625
20
-83.2
0
VERTEX
8
0
10
163.1625
20
-83.2
42
0.4142136
0
VERTEX
8
0
10
164.1625
20
-82.2
0
VERTEX
8
0
10
164.1625
20
-70.2
42
0.4142136
0
VERTEX
8
0
10
163.1625
20
-69.2
0
VERTEX
8
0
10
151.1625
20
-69.2
42
0.4142136
0
VERTEX
8
0
10
150.1625
20
-70.2
0
SEQEND
0
POLYLINE
8
0
6
CONTINUOUS
66
1
70
1
0
VERTEX
8
0
10
169.2125
20
-82.2
42
0.4142136
0
VERTEX
8
0
10
170.2125
20
-83.2
0
VERTEX
8
0
10
182.2125
20
-83.2
42
0.4142136
0
VERTEX
8
0
10
183.2125
20
-82.2
0
VERTEX
8
0
10
183.2125
20
-70.2
42
0.4142136
0
VERTEX
8
0
10
182.2125
20
-69.2
0
VERTEX
8
0
10
170.2125
20
-69.2
42
0.4142136
0
VERTEX
8
0
10
169.2125
20
-70.2
0
SEQEND
0
POLYLINE
8
0
6
CONTINUOUS
66
1
70
1
0
VERTEX
8
0
10
188.2625
20
-82.2
42
0.4142136
0
VERTEX
8
0
10
189.2625
20
-83.2
0
VERTEX
8
0
10
201.2625
20
-83.2
42
0.4142136
0
VERTEX
8
0
10
202.2625
20
-82.2
0
VERTEX
8
0
10
202.2625
20
-70.2
42
0.4142136
0
VERTEX
8
0
10
201.2625
20
-69.2
0
VERTEX
8
0
10
189.2625
20
-69.2
42
0.4142136
0
VERTEX
8
0
10
188.2625
20
-70.2
0
SEQEND
0
POLYLINE
8
0
6
CONTINUOUS
66
1
70
1
0
VERTEX
8
0
10
207.3125
20
-82.2
42
0.4142136
0
VERTEX
8
0
10
208.3125
20
-83.2
0
VERTEX
8
0
10
220.3125
20
-83.2
42
0.4142136
0
VERTEX
8
0
10
221.3125
20
-82.2
0
VERTEX
8
0
10
221.3125
20
-70.2
42
0.4142136
0
VERTEX
8
0
10
220.3125
20
-69.2
0
VERTEX
8
0
10
208.3125
20
-69.2
42
0.4142136
0
VERTEX
8
0
10
207.3125
20
-70.2
0
SEQEND
0
POLYLINE
8
0
6
CONTINUOUS
66
1
70
1
0
VERTEX
8
0
10
243.03125
20
-82.2
42
0.4142136
0
VERTEX
8
0
10
244.03125
20
-83.2
0
VERTEX
8
0
10
256.03125
20
-83.2
42
0.4142136
0
VERTEX
8
0
10
257.03125
20
-82.2
0
VERTEX
8
0
10
257.03125
20
-70.2
42
0.4142136
0
VERTEX
8
0
10
256.03125
20
-69.2
0
VERTEX
8
0
10
244.03125
20
-69.2
42
0.4142136
0
VERTEX
8
0
10
243.03125
20
-70.2
0
SEQEND
0
POLYLINE
8
0
6
CONTINUOUS
66
1
70
1
0
VERTEX
8
0
10
301.61
20
-82.2
42
0.4142136
0
VERTEX
8
0
10
302.61
20
-83.2
0
VERTEX
8
0
10
314.61
20
-83.2
42
0.4142136
0
VERTEX
8
0
10
315.61
20
-82.2
0
VERTEX
8
0
10
315.61
20
-70.2
42
0.4142136
0
VERTEX
8
0
10
314.61
20
-69.2
0
VERTEX
8
0
10
302.61
20
-69.2
42
0.4142136
0
VERTEX
8
0
10
301.61
20
-70.2
0
SEQEND
0
POLYLINE
8
0
6
CONTINUOUS
66
1
70
1
0
VERTEX
8
0
10
-4.61875
20
-101.25
42
0.4142136
0
VERTEX
8
0
10
-3.61875
20
-102.25
0
VERTEX
8
0
10
8.38125
20
-102.25
42
0.4142136
0
VERTEX
8
0
10
9.38125
20
-101.25
0
VERTEX
8
0
10
9.38125
20
-89.25
42
0.4142136
0
VERTEX
8
0
10
8.38125
20
-88.25
0
VERTEX
8
0
10
-3.61875
20
-88.25
42
0.4142136
0
VERTEX
8
0
10
-4.61875
20
-89.25
0
SEQEND
0
POLYLINE
8
0
6
CONTINUOUS
66
1
70
1
0
VERTEX
8
0
10
19.19375
20
-101.25
42
0.4142136
0
VERTEX
8
0
10
20.19375
20
-102.25
0
VERTEX
8
0
10
32.19375
20
-102.25
42
0.4142136
0
VERTEX
8
0
10
33.19375
20
-101.25
0
VERTEX
8
0
10
33.19375
20
-89.25
42
0.4142136
0
VERTEX
8
0
10
32.19375
20
-88.25
0
VERTEX
8
0
10
20.19375
20
-88.25
42
0.4142136
0
VERTEX
8
0
10
19.19375
20
-89.25
0
SEQEND
0
POLYLINE
8
0
6
CONTINUOUS
66
1
70
1
0
VERTEX
8
0
10
43.00625
20
-101.25
42
0.4142136
0
VERTEX
8
0
10
44.00625
20
-102.25
0
VERTEX
8
0
10
56.00625
20
-102.25
42
0.4142136
0
VERTEX
8
0
10
57.00625
20
-101.25
0
VERTEX
8
0
10
57.00625
20
-89.25
42
0.4142136
0
VERTEX
8
0
10
56.00625
20
-88.25
0
VERTEX
8
0
10
44.00625
20
-88.25
42
0.4142136
0
VERTEX
8
0
10
43.00625
20
-89.25
0
SEQEND
0
POLYLINE
8
0
6
CONTINUOUS
66
1
70
1
0
VERTEX
8
0
10
114.44375
20
-101.25
42
0.4142136
0
VERTEX
8
0
10
115.44375
20
-102.25
0
VERTEX
8
0
10
127.44375
20
-102.25
42
0.4142136
0
VERTEX
8
0
10
128.44375
20
-101.25
0
VERTEX
8
0
10
128.44375
20
-89.25
42
0.4142136
0
VERTEX
8
0
10
127.44375
20
-88.25
0
VERTEX
8
0
10
115.44375
20
-88.25
42
0.4142136
0
VERTEX
8
0
10
114.44375
20
-89.25
0
SEQEND
0
POLYLINE
8
0
6
CONTINUOUS
66
1
70
1
0
VERTEX
8
0
10
185.88125
20
-101.25
42
0.4142136
0
VERTEX
8
0
10
186.88125
20
-102.25
0
VERTEX
8
0
10
198.88125
20
-102.25
42
0.4142136
0
VERTEX
8
0
10
199.88125
20
-101.25
0
VERTEX
8
0
10
199.88125
20
-89.25
42
0.4142136
0
VERTEX
8
0
10
198.88125
20
-88.25
0
VERTEX
8
0
10
186.88125
20
-88.25
42
0.4142136
0
VERTEX
8
0
10
185.88125
20
-89.25
0
SEQEND
0
POLYLINE
8
0
6
CONTINUOUS
66
1
70
1
0
VERTEX
8
0
10
209.69375
20
-101.25
42
0.4142136
0
VERTEX
8
0
10
210.69375
20
-102.25
0
VERTEX
8
0
10
222.69375
20
-102.25
42
0.4142136
0
VERTEX
8
0
10
223.69375
20
-101.25
0
VERTEX
8
0
10
223.69375
20
-89.25
42
0.4142136
0
VERTEX
8
0
10
222.69375
20
-88.25
0
VERTEX
8
0
10
210.69375
20
-88.25
42
0.4142136
0
VERTEX
8
0
10
209.69375
20
-89.25
0
SEQEND
0
POLYLINE
8
0
6
CONTINUOUS
66
1
70
1
0
VERTEX
8
0
10
233.50625
20
-101.25
42
0.4142136
0
VERTEX
8
0
10
234.50625
20
-102.25
0
VERTEX
8
0
10
246.50625
20
-102.25
42
0.4142136
0
VERTEX
8
0
10
247.50625
20
-101.25
0
VERTEX
8
0
10
247.50625
20
-89.25
42
0.4142136
0
VERTEX
8
0
10
246.50625
20
-88.25
0
VERTEX
8
0
10
234.50625
20
-88.25
42
0.4142136
0
VERTEX
8
0
10
233.50625
20
-89.25
0
SEQEND
0
POLYLINE
8
0
6
CONTINUOUS
66
1
70
1
0
VERTEX
8
0
10
257.31875
20
-101.25
42
0.4142136
0
VERTEX
8
0
10
258.31875
20
-102.25
0
VERTEX
8
0
10
270.31875
20
-102.25
42
0.4142136
0
VERTEX
8
0
10
271.31875
20
-101.25
0
VERTEX
8
0
10
271.31875
20
-89.25
42
0.4142136
0
VERTEX
8
0
10
270.31875
20
-88.25
0
VERTEX
8
0
10
258.31875
20
-88.25
42
0.4142136
0
VERTEX
8
0
10
257.31875
20
-89.25
0
SEQEND
0
POLYLINE
8
0
6
CONTINUOUS
66
1
70
1
0
VERTEX
8
0
10
282.56
20
-101.25
42
0.4142136
0
VERTEX
8
0
10
283.56
20
-102.25
0
VERTEX
8
0
10
295.56
20
-102.25
42
0.4142136
0
VERTEX
8
0
10
296.56
20
-101.25
0
VERTEX
8
0
10
296.56
20
-89.25
42
0.4142136
0
VERTEX
8
0
10
295.56
20
-88.25
0
VERTEX
8
0
10
283.56
20
-88.25
42
0.4142136
0
VERTEX
8
0
10
282.56
20
-89.25
0
SEQEND
0
POLYLINE
8
0
6
CONTINUOUS
66
1
70
1
0
VERTEX
8
0
10
301.61
20
-101.25
42
0.4142136
0
VERTEX
8
0
10
302.61
20
-102.25
0
VERTEX
8
0
10
314.61
20
-102.25
42
0.4142136
0
VERTEX
8
0
10
315.61
20
-101.25
0
VERTEX
8
0
10
315.61
20
-89.25
42
0.4142136
0
VERTEX
8
0
10
314.61
20
-88.25
0
VERTEX
8
0
10
302.61
20
-88.25
42
0.4142136
0
VERTEX
8
0
10
301.61
20
-89.25
0
SEQEND
0
POLYLINE
8
0
6
CONTINUOUS
66
1
70
1
0
VERTEX
8
0
10
320.66
20
-101.25
42
0.4142136
0
VERTEX
8
0
10
321.66
20
-102.25
0
VERTEX
8
0
10
333.66
20
-102.25
42
0.4142136
0
VERTEX
8
0
10
334.66
20
-101.25
0
VERTEX
8
0
10
334.66
20
-89.25
42
0.4142136
0
VERTEX
8
0
10
333.66
20
-88.25
0
VERTEX
8
0
10
321.66
20
-88.25
42
0.4142136
0
VERTEX
8
0
10
320.66
20
-89.25
0
SEQEND
0
POLYLINE
8
0
6
CONTINUOUS
66
1
70
1
0
VERTEX
8
0
10
54.9125
20
-6
42
0.4142136
0
VERTEX
8
0
10
55.9125
20
-7
0
VERTEX
8
0
10
67.9125
20
-7
42
0.4142136
0
VERTEX
8
0
10
68.9125
20
-6
0
VERTEX
8
0
10
68.9125
20
6
42
0.4142136
0
VERTEX
8
0
10
67.9125
20
7
0
VERTEX
8
0
10
55.9125
20
7
42
0.4142136
0
VERTEX
8
0
10
54.9125
20
6
0
SEQEND
0
POLYLINE
8
0
6
CONTINUOUS
66
1
70
1
0
VERTEX
8
0
10
54.9125
20
-82.2
42
0.4142136
0
VERTEX
8
0
10
55.9125
20
-83.2
0
VERTEX
8
0
10
67.9125
20
-83.2
42
0.4142136
0
VERTEX
8
0
10
68.9125
20
-82.2
0
VERTEX
8
0
10
68.9125
20
-70.2
42
0.4142136
0
VERTEX
8
0
10
67.9125
20
-69.2
0
VERTEX
8
0
10
55.9125
20
-69.2
42
0.4142136
0
VERTEX
8
0
10
54.9125
20
-70.2
0
SEQEND
0
POLYLINE
8
0
6
CONTINUOUS
66
1
70
1
0
VERTEX
8
0
10
116.825
20
-6
42
0.4142136
0
VERTEX
8
0
10
117.825
20
-7
0
VERTEX
8
0
10
129.825
20
-7
42
0.4142136
0
VERTEX
8
0
10
130.825
20
-6
0
VERTEX
8
0
10
130.825
20
6
42
0.4142136
0
VERTEX
8
0
10
129.825
20
7
0
VERTEX
8
0
10
117.825
20
7
42
0.4142136
0
VERTEX
8
0
10
116.825
20
6
0
SEQEND
0
POLYLINE
8
0
6
CONTINUOUS
66
1
70
1
0
VERTEX
8
0
10
116.825
20
-44.1
42
0.4142136
0
VERTEX
8
0
10
117.825
20
-45.1
0
VERTEX
8
0
10
129.825
20
-45.1
42
0.4142136
0
VERTEX
8
0
10
130.825
20
-44.1
0
VERTEX
8
0
10
130.825
20
-32.1
42
0.4142136
0
VERTEX
8
0
10
129.825
20
-31.1
0
VERTEX
8
0
10
117.825
20
-31.1
42
0.4142136
0
VERTEX
8
0
10
116.825
20
-32.1
0
SEQEND
0
POLYLINE
8
0
6
CONTINUOUS
66
1
70
1
0
VERTEX
8
0
10
241.737
20
-27.05
42
0.4142136
0
VERTEX
8
0
10
242.737
20
-28.05
0
VERTEX
8
0
10
247.737
20
-28.05
42
0.4142136
0
VERTEX
8
0
10
248.737
20
-27.05
0
VERTEX
8
0
10
248.737
20
-14.05
42
0.4142136
0
VERTEX
8
0
10
247.737
20
-13.05
0
VERTEX
8
0
10
242.737
20
-13.05
42
0.4142136
0
VERTEX
8
0
10
241.737
20
-14.05
0
SEQEND
0
POLYLINE
8
0
6
CONTINUOUS
66
1
70
1
0
VERTEX
8
0
10
265.613
20
-27.05
42
0.4142136
0
VERTEX
8
0
10
266.613
20
-28.05
0
VERTEX
8
0
10
271.613
20
-28.05
42
0.4142136
0
VERTEX
8
0
10
272.613
20
-27.05
0
VERTEX
8
0
10
272.613
20
-14.05
42
0.4142136
0
VERTEX
8
0
10
271.613
20
-13.05
0
VERTEX
8
0
10
266.613
20
-13.05
42
0.4142136
0
VERTEX
8
0
10
265.613
20
-14.05
0
SEQEND
0
POLYLINE
8
0
6
CONTINUOUS
66
1
70
1
0
VERTEX
8
0
10
239.35575
20
-65.15
42
0.4142136
0
VERTEX
8
0
10
240.35575
20
-66.15
0
VERTEX
8
0
10
245.35575
20
-66.15
42
0.4142136
0
VERTEX
8
0
10
246.35575
20
-65.15
0
VERTEX
8
0
10
246.35575
20
-52.15
42
0.4142136
0
VERTEX
8
0
10
245.35575
20
-51.15
0
VERTEX
8
0
10
240.35575
20
-51.15
42
0.4142136
0
VERTEX
8
0
10
239.35575
20
-52.15
0
SEQEND
0
POLYLINE
8
0
6
CONTINUOUS
66
1
70
1
0
VERTEX
8
0
10
263.23175
20
-65.15
42
0.4142136
0
VERTEX
8
0
10
264.23175
20
-66.15
0
VERTEX
8
0
10
269.23175
20
-66.15
42
0.4142136
0
VERTEX
8
0
10
270.23175
20
-65.15
0
VERTEX
8
0
10
270.23175
20
-52.15
42
0.4142136
0
VERTEX
8
0
10
269.23175
20
-51.15
0
VERTEX
8
0
10
264.23175
20
-51.15
42
0.4142136
0
VERTEX
8
0
10
263.23175
20
-52.15
0
SEQEND
0
POLYLINE
8
0
6
CONTINUOUS
66
1
70
1
0
VERTEX
8
0
10
-3.53175
20
-84.2
42
0.4142136
0
VERTEX
8
0
10
-2.53175
20
-85.2
0
VERTEX
8
0
10
2.46825
20
-85.2
42
0.4142136
0
VERTEX
8
0
10
3.46825
20
-84.2
0
VERTEX
8
0
10
3.46825
20
-71.2
42
0.4142136
0
VERTEX
8
0
10
2.46825
20
-70.2
0
VERTEX
8
0
10
-2.53175
20
-70.2
42
0.4142136
0
VERTEX
8
0
10
-3.53175
20
-71.2
0
SEQEND
0
POLYLINE
8
0
6
CONTINUOUS
66
1
70
1
0
VERTEX
8
0
10
20.34425
20
-84.2
42
0.4142136
0
VERTEX
8
0
10
21.34425
20
-85.2
0
VERTEX
8
0
10
26.34425
20
-85.2
42
0.4142136
0
VERTEX
8
0
10
27.34425
20
-84.2
0
VERTEX
8
0
10
27.34425
20
-71.2
42
0.4142136
0
VERTEX
8
0
10
26.34425
20
-70.2
0
VERTEX
8
0
10
21.34425
20
-70.2
42
0.4142136
0
VERTEX
8
0
10
20.34425
20
-71.2
0
SEQEND
0
POLYLINE
8
0
6
CONTINUOUS
66
1
70
1
0
VERTEX
8
0
10
234.59325
20
-84.2
42
0.4142136
0
VERTEX
8
0
10
235.59325
20
-85.2
0
VERTEX
8
0
10
240.59325
20
-85.2
42
0.4142136
0
VERTEX
8
0
10
241.59325
20
-84.2
0
VERTEX
8
0
10
241.59325
20
-71.2
42
0.4142136
0
VERTEX
8
0
10
240.59325
20
-70.2
0
VERTEX
8
0
10
235.59325
20
-70.2
42
0.4142136
0
VERTEX
8
0
10
234.59325
20
-71.2
0
SEQEND
0
POLYLINE
8
0
6
CONTINUOUS
66
1
70
1
0
VERTEX
8
0
10
258.46925
20
-84.2
42
0.4142136
0
VERTEX
8
0
10
259.46925
20
-85.2
0
VERTEX
8
0
10
264.46925
20
-85.2
42
0.4142136
0
VERTEX
8
0
10
265.46925
20
-84.2
0
VERTEX
8
0
10
265.46925
20
-71.2
42
0.4142136
0
VERTEX
8
0
10
264.46925
20
-70.2
0
VERTEX
8
0
10
259.46925
20
-70.2
42
0.4142136
0
VERTEX
8
0
10
258.46925
20
-71.2
0
SEQEND
0
POLYLINE
8
0
6
CONTINUOUS
66
1
70
1
0
VERTEX
8
0
10
67.94375
20
-103.25
42
0.4142136
0
VERTEX
8
0
10
68.94375
20
-104.25
0
VERTEX
8
0
10
73.94375
20
-104.25
42
0.4142136
0
VERTEX
8
0
10
74.94375
20
-103.25
0
VERTEX
8
0
10
74.94375
20
-90.25
42
0.4142136
0
VERTEX
8
0
10
73.94375
20
-89.25
0
VERTEX
8
0
10
68.94375
20
-89.25
42
0.4142136
0
VERTEX
8
0
10
67.94375
20
-90.25
0
SEQEND
0
POLYLINE
8
0
6
CONTINUOUS
66
1
70
1
0
VERTEX
8
0
10
167.94375
20
-103.25
42
0.4142136
0
VERTEX
8
0
10
168.94375
20
-104.25
0
VERTEX
8
0
10
173.94375
20
-104.25
42
0.4142136
0
VERTEX
8
0
10
174.94375
20
-103.25
0
VERTEX
8
0
10
174.94375
20
-90.25
42
0.4142136
0
VERTEX
8
0
10
173.94375
20
-89.25
0
VERTEX
8
0
10
168.94375
20
-89.25
42
0.4142136
0
VERTEX
8
0
10
167.94375
20
-90.25
0
SEQEND
0
ENDSEC
0
EOF